# xmcd
#
# Track frame offsets: 
#        150
#        10006
#        22186
#        32568
#        46398
#        55587
#        67931
#        80306
#        94991
#        107202
#        113675
#        128291
#        140860
#        151767
#        166765
#        178135
#        188232
#
# Disc length: 2657 seconds
#
# Revision: 1
# Processed by: cddbd v1.5.2PL0 Copyright (c) Steve Scherf et al.
# Submitted via: ExactAudioCopy v0.99pb3
#
DISCID=d20a5f11
DTITLE=Various Artist - Radio Bob, Volume 2: Another 17 Brilliant Tracks From
DTITLE=Dylan's Theme Time Radio Hour 
DYEAR=1900
DGENRE=
TTITLE0=Fats Domino - I'm Walkin'
TTITLE1=George Jones - Just One More
TTITLE2=Faron Young - Live Fast, Love Hard, Die Young
TTITLE3=LaVern Baker - Soul On Fire
TTITLE4=Johnny Burnette - Lonesome Train (On A Lonesome Track)
TTITLE5=The 5 Royales - Dedicated To The One I Love
TTITLE6=Webb Pierce - Drifting Texas Sand
TTITLE7=Paul Bascomb - Pink Cadillac
TTITLE8=Smiley Lewis - Blue Monday
TTITLE9=Mose Allison - Young Man's Blues
TTITLE10=The Coasters - Down In Mexico
TTITLE11=Bob Wills and His Texas Playboys - Brain Cloudy Blues
TTITLE12=Cisco Houston - Diamond Joe
TTITLE13=Guy Lombardo - Enjoy Yourself (It's Later Than You Think)
TTITLE14=The Louvin Brothers - Don't Laugh
TTITLE15=Doc Pomus - Send For The Doctor
TTITLE16=Al Jolson - California, Here I Come
EXTD=
EXTT0=
EXTT1=
EXTT2=
EXTT3=
EXTT4=
EXTT5=
EXTT6=
EXTT7=
EXTT8=
EXTT9=
EXTT10=
EXTT11=
EXTT12=
EXTT13=
EXTT14=
EXTT15=
EXTT16=
PLAYORDER=
